<svg width="95" height="82" viewBox="0 0 95 82" fill="none" xmlns="http://www.w3.org/2000/svg">
<path d="M9.5 9.11111H23.75L33.25 0H61.75L71.25 9.11111H85.5C88.0196 9.11111 90.4359 10.071 92.2175 11.7797C93.9991 13.4884 95 15.8058 95 18.2222V72.8889C95 75.3053 93.9991 77.6227 92.2175 79.3314C90.4359 81.0401 88.0196 82 85.5 82H9.5C6.98044 82 4.56408 81.0401 2.78249 79.3314C1.00089 77.6227 0 75.3053 0 72.8889V18.2222C0 15.8058 1.00089 13.4884 2.78249 11.7797C4.56408 10.071 6.98044 9.11111 9.5 9.11111ZM47.5 22.7778C41.2011 22.7778 35.1602 25.1776 30.7062 29.4492C26.2522 33.7209 23.75 39.5145 23.75 45.5556C23.75 51.5966 26.2522 57.3902 30.7062 61.6619C35.1602 65.9335 41.2011 68.3333 47.5 68.3333C53.7989 68.3333 59.8398 65.9335 64.2938 61.6619C68.7478 57.3902 71.25 51.5966 71.25 45.5556C71.25 39.5145 68.7478 33.7209 64.2938 29.4492C59.8398 25.1776 53.7989 22.7778 47.5 22.7778ZM47.5 31.8889C51.2793 31.8889 54.9039 33.3288 57.5763 35.8918C60.2487 38.4548 61.75 41.9309 61.75 45.5556C61.75 49.1802 60.2487 52.6563 57.5763 55.2193C54.9039 57.7823 51.2793 59.2222 47.5 59.2222C43.7207 59.2222 40.0961 57.7823 37.4237 55.2193C34.7513 52.6563 33.25 49.1802 33.25 45.5556C33.25 41.9309 34.7513 38.4548 37.4237 35.8918C40.0961 33.3288 43.7207 31.8889 47.5 31.8889Z" fill="#699BF7"/>
</svg>
