<svg width="170" height="159" viewBox="0 0 170 159" fill="none" xmlns="http://www.w3.org/2000/svg">
<path d="M169.879 25.281L72.963 116.07L36.9487 82.362L48.9251 71.1525L72.963 93.651L157.903 14.151L169.879 25.281ZM151.107 65.349C152.212 69.8805 152.891 74.6505 152.891 79.5C152.891 114.639 122.483 143.1 84.9395 143.1C47.3962 143.1 16.9879 114.639 16.9879 79.5C16.9879 44.361 47.3962 15.9 84.9395 15.9C98.3599 15.9 110.761 19.557 121.294 25.8375L133.525 14.3895C119.765 5.3265 103.032 0 84.9395 0C38.0529 0 0 35.616 0 79.5C0 123.384 38.0529 159 84.9395 159C131.826 159 169.879 123.384 169.879 79.5C169.879 70.0395 168.01 60.9765 164.783 52.5495L151.107 65.349Z" fill="white"/>
</svg>
