<svg width="93" height="136" viewBox="0 0 93 136" fill="none" xmlns="http://www.w3.org/2000/svg">
<path d="M46.3779 97.1429C53.7556 97.1348 60.829 94.0618 66.0459 88.5982C71.2627 83.1346 74.1969 75.7267 74.2046 68V29.1429C74.2046 21.4137 71.2729 14.0011 66.0544 8.53575C60.8358 3.0704 53.758 0 46.3779 0C38.9978 0 31.9199 3.0704 26.7014 8.53575C21.4829 14.0011 18.5512 21.4137 18.5512 29.1429V68C18.5588 75.7267 21.493 83.1346 26.7099 88.5982C31.9267 94.0618 39.0001 97.1348 46.3779 97.1429ZM27.8267 29.1429C27.8267 23.9901 29.7812 19.0483 33.2602 15.4048C36.7393 11.7612 41.4578 9.71429 46.3779 9.71429C51.298 9.71429 56.0165 11.7612 59.4955 15.4048C62.9745 19.0483 64.929 23.9901 64.929 29.1429V68C64.929 73.1528 62.9745 78.0945 59.4955 81.7381C56.0165 85.3816 51.298 87.4286 46.3779 87.4286C41.4578 87.4286 36.7393 85.3816 33.2602 81.7381C29.7812 78.0945 27.8267 73.1528 27.8267 68V29.1429ZM51.0157 116.329V131.143C51.0157 132.431 50.5271 133.666 49.6573 134.577C48.7875 135.488 47.6079 136 46.3779 136C45.1479 136 43.9682 135.488 43.0985 134.577C42.2287 133.666 41.7401 132.431 41.7401 131.143V116.329C30.3059 115.11 19.7092 109.494 11.9994 100.568C4.2895 91.6407 0.0141227 80.0369 0 68C0 66.7118 0.488624 65.4764 1.35838 64.5655C2.22813 63.6546 3.40777 63.1429 4.63779 63.1429C5.86781 63.1429 7.04744 63.6546 7.9172 64.5655C8.78695 65.4764 9.27558 66.7118 9.27558 68C9.27558 78.3056 13.1846 88.189 20.1426 95.4762C27.1006 102.763 36.5377 106.857 46.3779 106.857C56.218 106.857 65.6551 102.763 72.6132 95.4762C79.5712 88.189 83.4802 78.3056 83.4802 68C83.4802 66.7118 83.9688 65.4764 84.8386 64.5655C85.7083 63.6546 86.888 63.1429 88.118 63.1429C89.348 63.1429 90.5276 63.6546 91.3974 64.5655C92.2671 65.4764 92.7558 66.7118 92.7558 68C92.7416 80.0369 88.4663 91.6407 80.7564 100.568C73.0465 109.494 62.4499 115.11 51.0157 116.329Z" fill="#699BF7"/>
</svg>
